<svg width="3689" height="1497" viewBox="0 0 3689 1497" fill="none" xmlns="http://www.w3.org/2000/svg">
<path d="M305.877 1043.82C262.295 1043.82 221.808 1036.69 184.414 1022.43C147.019 1008.17 114.602 987.862 87.1639 961.499C59.7228 935.136 38.3365 904.198 23.0018 868.688C7.66719 833.175 0 794.167 0 751.66C0 709.156 7.66719 670.15 23.0018 634.636C38.3365 599.126 59.8554 568.188 87.5653 541.825C115.275 515.459 147.693 495.151 184.819 480.891C221.941 466.631 262.563 459.505 306.683 459.505C355.646 459.505 399.902 467.978 439.446 484.926C478.99 501.873 491.747 504.497 518.651 537.316L455.182 637.058C435.813 614.998 414.291 598.453 390.619 587.425C366.943 576.393 341.118 570.879 313.139 570.879C286.776 570.879 262.563 575.182 240.504 583.792C218.444 592.401 199.344 604.777 183.203 620.918C167.062 637.058 154.554 656.159 145.676 678.219C136.797 700.278 132.358 724.76 132.358 751.66C132.358 778.564 136.797 803.046 145.676 825.106C154.554 847.165 167.062 866.266 183.203 882.407C199.344 898.548 218.444 910.923 240.504 919.533C262.563 928.139 286.776 932.445 313.139 932.445C341.118 932.445 366.943 926.928 390.619 915.9C414.291 904.868 435.813 888.057 455.182 865.456L520.572 963.337C493.668 996.156 478.99 1000.78 439.446 1017.99C399.902 1035.21 355.378 1043.82 305.877 1043.82ZM889.383 1043.82C844.726 1043.82 803.433 1036.56 765.498 1022.03C727.566 1007.5 694.747 987.055 667.037 960.693C639.327 934.326 617.808 903.392 602.474 867.878C587.139 832.368 579.472 793.63 579.472 751.66C579.472 709.694 587.139 670.956 602.474 635.446C617.808 599.933 639.463 568.995 667.442 542.632C695.421 516.269 728.24 495.821 765.903 481.296C803.566 466.768 844.457 459.505 888.577 459.505C933.234 459.505 974.261 466.768 1011.66 481.296C1049.05 495.821 1081.6 516.269 1109.31 542.632C1137.02 568.995 1158.67 599.8 1174.28 635.041C1189.88 670.282 1197.68 709.156 1197.68 751.66C1197.68 793.63 1189.88 832.504 1174.28 868.283C1158.67 904.062 1137.02 935 1109.31 961.094C1081.6 987.192 1049.05 1007.5 1011.66 1022.03C974.261 1036.56 933.502 1043.82 889.383 1043.82ZM888.577 932.445C913.865 932.445 937.135 928.139 958.389 919.533C979.639 910.923 998.338 898.548 1014.48 882.407C1030.62 866.266 1043.13 847.165 1052.01 825.106C1060.88 803.046 1065.32 778.564 1065.32 751.66C1065.32 724.76 1060.88 700.278 1052.01 678.219C1043.13 656.159 1030.76 637.058 1014.88 620.918C999.011 604.777 980.312 592.401 958.79 583.792C937.268 575.182 913.865 570.879 888.577 570.879C863.289 570.879 840.018 575.182 818.764 583.792C797.514 592.401 778.816 604.777 762.675 620.918C746.534 637.058 734.026 656.159 725.148 678.219C716.269 700.278 711.83 724.76 711.83 751.66C711.83 778.027 716.269 802.372 725.148 824.701C734.026 847.029 746.398 866.266 762.27 882.407C778.145 898.548 796.841 910.923 818.363 919.533C839.885 928.139 863.289 932.445 888.577 932.445ZM1481.77 1043.82C1436.57 1043.82 1393.26 1037.77 1351.83 1025.66C1310.4 1013.55 1285.82 997.082 1260.53 977.713L1301.15 883.458C1325.36 900.678 1349.01 911.328 1382.1 922.356C1415.19 933.384 1448.68 938.902 1482.57 938.902C1508.4 938.902 1529.25 936.343 1545.12 931.234C1561 926.121 1572.7 918.992 1580.23 909.848C1587.76 900.701 1591.53 890.207 1591.53 878.372C1591.53 863.306 1585.61 851.336 1573.77 842.457C1561.94 833.579 1546.33 826.317 1526.96 820.667C1507.59 815.016 1486.21 809.635 1462.8 804.525C1439.4 799.413 1415.99 793.092 1392.59 785.558C1369.18 778.027 1347.79 768.342 1328.42 756.504C1309.06 744.67 1344.53 729.063 1332.42 709.694C1320.32 690.325 1314.26 653.869 1314.26 623.741C1314.26 591.456 1271.8 573.702 1289.28 547.071C1306.77 520.442 1333.13 499.186 1368.38 483.313C1403.62 467.441 1447.87 459.505 1501.14 459.505C1536.65 459.505 1571.62 463.675 1606.06 472.013C1640.49 480.354 1670.89 492.862 1697.25 509.543L1656.9 608.811C1630.54 593.745 1604.17 582.581 1577.81 575.318C1551.44 568.055 1525.62 564.423 1500.33 564.423C1475.04 564.423 1454.33 567.382 1438.19 573.301C1422.04 579.22 1410.48 586.887 1403.48 596.303C1396.49 605.719 1392.99 616.614 1392.99 628.986C1392.99 643.515 1398.91 655.216 1410.75 664.095C1422.58 672.973 1438.19 680.103 1457.55 685.481C1476.93 690.862 1498.31 696.244 1521.72 701.625C1545.12 707.003 1568.53 713.191 1591.93 720.185C1615.34 727.182 1636.72 736.598 1656.09 748.432C1675.46 760.27 1691.2 775.873 1703.31 795.243C1715.41 814.612 1721.46 839.093 1721.46 868.688C1721.46 900.432 1712.59 929.486 1694.83 955.849C1677.08 982.215 1650.58 1003.47 1615.34 1019.61C1580.1 1035.75 1535.57 1043.82 1481.77 1043.82ZM1811.05 1034.13V469.19H1919.2L2159.7 867.878H2102.4L2338.87 469.19H2446.21L2447.82 1034.13H2325.15L2324.34 657.234H2346.94L2158.08 974.412H2099.17L1906.28 657.234H1933.72V1034.13H1811.05ZM2856.19 1043.82C2811.54 1043.82 2770.24 1036.56 2732.31 1022.03C2694.38 1007.5 2661.56 987.055 2633.85 960.693C2606.14 934.326 2584.62 903.392 2569.28 867.878C2553.95 832.368 2546.28 793.63 2546.28 751.66C2546.28 709.694 2553.95 670.956 2569.28 635.446C2584.62 599.933 2606.27 568.995 2634.25 542.632C2662.23 516.269 2695.05 495.821 2732.71 481.296C2770.38 466.768 2811.27 459.505 2855.39 459.505C2900.04 459.505 2941.07 466.768 2978.46 481.296C3015.86 495.821 3048.41 516.269 3076.12 542.632C3103.83 568.995 3125.48 599.8 3141.09 635.041C3156.69 670.282 3164.49 709.156 3164.49 751.66C3164.49 793.63 3156.69 832.504 3141.09 868.283C3125.48 904.062 3103.83 935 3076.12 961.094C3048.41 987.192 3015.86 1007.5 2978.46 1022.03C2941.07 1036.56 2900.31 1043.82 2856.19 1043.82ZM2855.39 932.445C2880.67 932.445 2903.94 928.139 2925.2 919.533C2946.45 910.923 2965.15 898.548 2981.29 882.407C2997.43 866.266 3009.94 847.165 3018.82 825.106C3027.69 803.046 3032.13 778.564 3032.13 751.66C3032.13 724.76 3027.69 700.278 3018.82 678.219C3009.94 656.159 2997.56 637.058 2981.69 620.918C2965.82 604.777 2947.12 592.401 2925.6 583.792C2904.08 575.182 2880.67 570.879 2855.39 570.879C2830.1 570.879 2806.83 575.182 2785.57 583.792C2764.32 592.401 2745.62 604.777 2729.48 620.918C2713.34 637.058 2700.84 656.159 2691.96 678.219C2683.08 700.278 2678.64 724.76 2678.64 751.66C2678.64 778.027 2683.08 802.372 2691.96 824.701C2700.84 847.029 2713.21 866.266 2729.08 882.407C2744.95 898.548 2763.65 910.923 2785.17 919.533C2806.69 928.139 2830.1 932.445 2855.39 932.445ZM3448.58 1043.82C3403.38 1043.82 3360.07 1037.77 3318.64 1025.66C3277.21 1013.55 3243.85 997.815 3218.56 978.446L3262.95 879.985C3287.17 897.204 3315.82 911.328 3348.91 922.356C3382 933.387 3415.49 938.902 3449.38 938.902C3475.21 938.902 3496.06 936.343 3511.93 931.234C3527.8 926.121 3539.51 918.992 3547.04 909.848C3554.57 900.701 3558.34 890.207 3558.34 878.372C3558.34 863.306 3552.42 851.336 3540.58 842.457C3528.75 833.579 3513.14 826.317 3493.77 820.667C3474.4 815.016 3453.02 809.635 3429.61 804.525C3406.21 799.413 3382.8 793.092 3359.4 785.558C3335.99 778.027 3314.61 768.342 3295.23 756.504C3275.86 744.667 3260.13 729.063 3248.02 709.694C3235.92 690.325 3229.86 665.575 3229.86 635.446C3229.86 603.161 3238.61 573.702 3256.09 547.071C3273.58 520.439 3299.94 499.186 3335.19 483.313C3370.43 467.441 3414.68 459.505 3467.95 459.505C3503.46 459.505 3538.43 463.675 3572.87 472.013C3607.3 480.354 3637.7 492.862 3664.06 509.543L3623.71 608.811C3597.34 593.745 3570.98 582.581 3544.62 575.318C3518.25 568.055 3492.43 564.423 3467.14 564.423C3441.85 564.423 3421.14 567.382 3404.99 573.301C3388.85 579.22 3377.29 586.887 3370.29 596.303C3363.3 605.719 3359.8 616.614 3359.8 628.986C3359.8 643.515 3365.72 655.216 3377.56 664.095C3389.39 672.973 3404.99 680.103 3424.36 685.481C3443.74 690.862 3465.12 696.244 3488.53 701.625C3511.93 707.003 3535.34 713.191 3558.74 720.185C3582.15 727.182 3603.53 736.598 3622.9 748.432C3642.27 760.27 3658.01 775.873 3670.12 795.243C3682.22 814.612 3688.27 839.093 3688.27 868.688C3688.27 900.432 3679.4 929.486 3661.64 955.849C3643.89 982.215 3617.39 1003.47 3582.15 1019.61C3546.91 1035.75 3502.38 1043.82 3448.58 1043.82Z" fill="#C3CAD9"/>
<path d="M1105.86 748.535C1105.86 629.928 1009.72 533.776 891.11 533.776C772.503 533.776 676.352 629.928 676.352 748.535C676.352 867.142 772.503 963.29 891.11 963.29C1009.72 963.29 1105.86 867.142 1105.86 748.535Z" fill="#7734E7"/>
<path d="M892.385 293.468C641.198 293.468 437.305 497.998 437.305 748.548C437.305 999.096 641.835 1203.63 892.385 1203.63C997.206 1203.63 1094.36 1167.83 1171.06 1107.76C1187.04 1119.9 1206.21 1126.93 1227.94 1126.93C1280.35 1126.93 1322.54 1084.74 1322.54 1032.33C1322.54 1005.49 1311.03 981.2 1293.14 963.944C1327.65 900.028 1347.46 826.526 1347.46 748.548C1347.46 497.357 1143.57 293.468 892.385 293.468ZM1227.94 937.737C1175.53 937.737 1133.35 979.922 1133.35 1032.33C1133.35 1054.06 1141.02 1073.88 1153.16 1089.86C1080.94 1145.47 990.175 1178.06 892.385 1178.06C655.258 1178.06 462.872 985.035 462.872 748.548C462.872 512.058 655.899 319.034 892.385 319.034C1129.51 319.034 1321.9 512.058 1321.9 748.548C1321.9 820.773 1304 889.162 1272.04 949.243C1259.26 942.213 1243.92 937.737 1227.94 937.737Z" fill="#7734E7"/>
<path d="M244.286 435.345C249.402 437.903 254.514 439.18 259.627 439.18C271.133 439.18 281.998 432.79 287.748 422.565C296.059 407.223 290.306 387.41 274.968 379.099C259.627 370.791 239.813 376.544 231.502 391.882C222.554 407.224 228.307 426.397 244.286 435.345Z" fill="#7734E7"/>
<path d="M381.694 1256.04C369.548 1268.82 370.829 1289.28 383.608 1301.42C390.002 1307.17 397.672 1309.73 405.34 1309.73C414.291 1309.73 422.599 1306.54 428.989 1299.51C441.135 1286.72 439.854 1266.27 427.071 1254.13C414.291 1242.62 393.837 1243.26 381.694 1256.04Z" fill="#7734E7"/>
<path d="M244.923 1063.01C229.581 1071.32 223.832 1091.13 232.139 1106.47C237.892 1117.33 248.758 1123.09 260.264 1123.09C265.377 1123.09 270.489 1121.81 275.602 1119.25C290.943 1110.94 296.696 1091.77 288.385 1075.79C279.437 1060.45 260.264 1054.7 244.923 1063.01Z" fill="#7734E7"/>
<path d="M1266.94 172.645C1272.05 176.48 1278.44 177.761 1284.2 177.761C1294.42 177.761 1304.65 172.645 1311.04 163.06C1320.63 148.359 1316.79 128.545 1301.45 118.957C1286.75 109.369 1266.94 113.204 1257.35 128.545C1247.76 143.246 1252.24 163.057 1266.94 172.645Z" fill="#7734E7"/>
<path d="M1059.85 81.9007C1062.4 82.541 1064.96 83.1811 1067.52 83.1811C1081.58 83.1811 1095 73.5928 1098.2 58.8918C1102.67 41.6361 1091.81 24.3772 1075.19 19.9049C1057.93 15.4292 1040.67 26.2947 1036.2 42.9134C1032.37 60.1691 1042.59 77.4283 1059.85 81.9007Z" fill="#7734E7"/>
<path d="M831.674 64.0016C832.314 64.0016 833.591 64.0016 834.232 64.0016C852.128 62.7242 864.911 47.3828 863.634 29.4868C862.353 11.5908 847.015 -1.19233 829.119 0.0883267C811.223 1.36566 798.44 16.7035 799.717 34.5995C800.995 51.2182 815.059 64.0016 831.674 64.0016Z" fill="#7734E7"/>
<path d="M602.21 122.158C606.685 122.158 611.158 121.518 614.993 119.603C630.971 112.573 638.642 93.3962 631.612 77.4178C624.578 61.4395 605.405 53.7689 589.427 60.7992C573.448 67.8295 565.778 87.006 573.448 102.984C578.561 115.127 590.067 122.158 602.21 122.158Z" fill="#7734E7"/>
<path d="M1268.21 1323.79C1253.51 1333.38 1249.68 1353.19 1259.26 1367.89C1265.66 1377.48 1275.88 1382.59 1286.11 1382.59C1291.86 1382.59 1298.25 1380.68 1303.37 1377.48C1318.07 1367.89 1322.54 1348.08 1312.95 1333.38C1302.73 1318.04 1282.91 1314.2 1268.21 1323.79Z" fill="#7734E7"/>
<path d="M1458.68 337.543C1465.71 337.543 1472.74 335.625 1478.5 330.512C1492.56 319.647 1495.11 299.833 1484.25 285.773C1473.38 271.712 1453.57 269.154 1439.51 280.02C1425.45 290.885 1423.53 310.699 1434.39 324.759C1440.15 333.707 1449.09 337.543 1458.68 337.543Z" fill="#7734E7"/>
<path d="M1479.13 1164.64C1465.07 1153.77 1445.26 1156.33 1434.39 1170.39C1423.53 1184.45 1426.08 1204.27 1440.14 1215.13C1445.89 1219.61 1452.92 1222.16 1459.96 1222.16C1469.54 1222.16 1479.13 1217.69 1484.88 1210.02C1495.75 1195.96 1493.19 1175.51 1479.13 1164.64Z" fill="#7734E7"/>
<path d="M1061.12 1414.55C1043.86 1419.03 1033.63 1436.28 1038.11 1453.54C1041.94 1468.24 1054.73 1477.83 1068.79 1477.83C1071.34 1477.83 1073.9 1477.83 1076.46 1477.19C1093.72 1472.72 1103.94 1455.46 1099.47 1438.2C1095.63 1420.95 1078.37 1410.08 1061.12 1414.55Z" fill="#7734E7"/>
<path d="M616.278 1378.1C600.3 1371.07 581.126 1378.1 574.093 1394.72C567.062 1410.7 574.093 1429.88 590.711 1436.91C594.547 1438.82 599.022 1439.46 603.495 1439.46C615.638 1439.46 627.784 1432.43 632.897 1420.29C639.927 1403.67 632.897 1385.13 616.278 1378.1Z" fill="#7734E7"/>
<path d="M835.499 1433.08C817.603 1431.8 802.262 1444.59 800.985 1462.49C799.708 1480.38 812.491 1495.72 830.387 1497C831.027 1497 832.304 1497 832.945 1497C849.56 1497 863.624 1484.22 864.901 1467.6C866.179 1450.34 853.395 1435 835.499 1433.08Z" fill="#7734E7"/>
<path d="M548.514 216.759C548.514 137.687 484.412 73.5879 405.343 73.5879C326.271 73.5879 262.172 137.687 262.172 216.759C262.172 295.831 326.271 359.93 405.343 359.93C484.412 359.93 548.514 295.831 548.514 216.759Z" fill="#7734E7"/>
</svg>
